/* XPM */
static char *dec7e1965d2f4c18b1e0be1d1f9128afj9QhFjRLtxa4i2DW[] = {
/* columns rows colors chars-per-pixel */
"64 64 16 1 ",
"  c None",
". c black",
"X c #002300",
"o c #002C00",
"O c #003900",
"+ c #006200",
"@ c #007B00",
"# c #007D00",
"$ c #004040",
"% c #008E00",
"& c #00B100",
"* c #00ED00",
"= c #800080",
"- c #910091",
"; c #FF87FF",
": c #80FFFF",
/* pixels */
"                                                                ",
"                 XX                         XX                  ",
"                XOOX                       XO==                 ",
"               ====OX                     XOO===                ",
"              X=;;==OX                   XOO=;;;-               ",
"              X;;;==OX                   XOO=;;;X               ",
"               -;;;;OXXX               XXXOO=;--                ",
"                --;XX   X             O   XX;;-                 ",
"                 XX      O           O      XX                  ",
"                          O         O                           ",
"                           X       X                            ",
"                           @       @                            ",
"                           @       @                            ",
"                           @       $                            ",
"                           $       $                            ",
"                          @@$     $@@                           ",
"                          @@$     $@@                           ",
"                        ooooooooooooooo                         ",
"                       o+++++++++++++++o                        ",
"                      o+++++++++++++++++o                       ",
"                     o++%%%%%&***&&%%%%++o                      ",
"                    o++%&&&&*******&&&%%++o                     ",
"                   o++%%&&&&*******&&&&%+++o                    ",
"                  o++%%%&..&*******..&&%%+++o                   ",
"                 o++%%%&...&******&...&&%%+++o                  ",
"                o++%%%&&.:.&******&.:.&&&%++++o                 ",
"               o+++%%%&&...&******&...&&&%%%%++o                ",
"               o++%%%%&&&..&&*****&..&&&&%%%%++o                ",
"              o+++%%%%&&&&&&&*****&&&&&&&%%%%+++o               ",
"              o+++%%%%%%&&&&&&***&&&&&&&&%%%%+++o               ",
"              o+++%%%%%%&&&&&&***&&&&&&&%%%%%+++o               ",
"              o+++++%%%%%&&&&&***&&&&&&%%%%%++++o               ",
"               oo++++%%%%%&&..***..&&%%%%%%+++oo                ",
"                 oo+++%%%%&&&.....&&&%%%%+++oo                  ",
"                   oo++++%&&&&&&&&&%%%%%++Xo                    ",
"                     o++++&&&&&&&&&%%%%++o                      ",
"                      oooo+++&&&&&+++oooo                       ",
"                    oo####**********&####oo                     ",
"                   o###%%%**********&&&####o                    ",
"                  o##%%%%&&*********&&%%%###o                   ",
"                 o##%%%%&&&********&&&%%%####o                  ",
"                o##%%%%%%&&&******&&&&%%%%####o                 ",
"               o&####%%%%&&&******&&&%%%%%#####o                ",
"             oo*&####%%%%&&&*****&&&&%%%%######&oo              ",
"            o**&&##+###%%%&&&****&&&&%%%###++##&&&o             ",
"           o**&&##++####%%&&&***&&&&%%%####+++##&&&o            ",
"           o&&&##+o+++##%%%&&&**&&&%%%####++o++####o            ",
"           o&###+ooo++##%%%&&&**&&&%%%###++o.o++##+o            ",
"           o###++o o++##%%%%&&%%&&%%%###+++o  o++++o            ",
"            o#++o  o++####%%%%%%%%%%%###+++o  .+++o             ",
"             ooo   o++####%%%%%%%%%%%####++o   ooo              ",
"                   o#+###%%%#######%%%###++o                    ",
"                 oo#####%%###+++++###%%%%%++oo                  ",
"                 o#########+++++++++####%%%*+o                  ",
"                o**#####+++++++++++++++#%%%**+o                 ",
"                o*#####+ooooooooooooooo++%%&&&o                 ",
"               oo&&##++o               o++#%%%oo                ",
"             oo&&&###+o                 o+##%%##oo              ",
"            o###&####.                   o#####+++o             ",
"           o+#####++++o                 o######++++o            ",
"           o+++#++++++o                 o+++##+++++o            ",
"            oo++++++oo                   oo++++++oo             ",
"              oooooo                       oooooo               ",
"                                                                "
};
