/* XPM */
static char *result[] = {
/* columns rows colors chars-per-pixel */
"64 64 183 2 ",
"   c #060403",
".  c #090604",
"X  c #0D0A07",
"o  c #0E0B08",
"O  c #120D09",
"+  c #16110C",
"@  c #1B150F",
"#  c #1D1711",
"$  c #1F1811",
"%  c #290F05",
"&  c #321505",
"*  c #3D1200",
"=  c #34170B",
"-  c #361C08",
";  c #3A1B0A",
":  c #3E1D02",
">  c #231C14",
",  c #391F12",
"<  c #3D220C",
"1  c #2A2017",
"2  c #2A2219",
"3  c #31271D",
"4  c #3E2618",
"5  c #352A1E",
"6  c #392C1F",
"7  c #3E2F21",
"8  c #421502",
"9  c #491C07",
"0  c #4C1F0E",
"q  c #531603",
"w  c #5C1C03",
"e  c #651E00",
"r  c #721D02",
"t  c #462205",
"y  c #4B2609",
"u  c #592B09",
"i  c #442515",
"p  c #482717",
"a  c #4E2C1A",
"s  c #43281A",
"d  c #532412",
"f  c #5D2B15",
"g  c #542E1B",
"h  c #583211",
"j  c #51311B",
"k  c #652200",
"l  c #6F2007",
"z  c #622D02",
"x  c #64210B",
"c  c #6B260E",
"v  c #792106",
"b  c #742308",
"n  c #752803",
"m  c #673207",
"M  c #6C3305",
"N  c #673208",
"B  c #733A0B",
"V  c #783D0C",
"C  c #623916",
"Z  c #453223",
"A  c #784013",
"S  c #70411B",
"D  c #821E00",
"F  c #BB1E01",
"G  c #8E2100",
"H  c #962200",
"J  c #982200",
"K  c #942A00",
"L  c #9A2C00",
"P  c #843F08",
"I  c #8A3307",
"U  c #9B3000",
"Y  c #9D3E04",
"T  c #A42500",
"R  c #AC2600",
"E  c #A22D00",
"W  c #A82F00",
"Q  c #B02701",
"!  c #B42800",
"~  c #B92900",
"^  c #A33200",
"/  c #AC3A00",
"(  c #AB3400",
")  c #BC3401",
"_  c #B03E00",
"`  c #CC2601",
"'  c #C22A01",
"]  c #CB2C01",
"[  c #C22301",
"{  c #D32601",
"}  c #DB2701",
"|  c #D42C02",
" . c #DB2D01",
".. c #C23400",
"X. c #C23A00",
"o. c #CC3801",
"O. c #D33103",
"+. c #DD3202",
"@. c #D63E00",
"#. c #E22E02",
"$. c #FF2F00",
"%. c #E53102",
"&. c #EA3502",
"*. c #E53902",
"=. c #EC3B02",
"-. c #F43500",
";. c #F83500",
":. c #F33C01",
">. c #FC3C00",
",. c #994503",
"<. c #9E4A06",
"1. c #90490F",
"2. c #93410A",
"3. c #9F5000",
"4. c #814412",
"5. c #A54F09",
"6. c #BE4000",
"7. c #BE4A00",
"8. c #A95105",
"9. c #A7510C",
"0. c #AF540A",
"q. c #BD5900",
"w. c #B1580A",
"e. c #A25111",
"r. c #BD6200",
"t. c #C94D00",
"y. c #D44400",
"u. c #DB4500",
"i. c #D04F00",
"p. c #CE5500",
"a. c #C45D05",
"s. c #CE5B00",
"d. c #D55000",
"f. c #DD5400",
"g. c #D15D01",
"h. c #E44501",
"j. c #EF4202",
"k. c #EC4A00",
"l. c #F44301",
"z. c #FD4400",
"x. c #F44A00",
"c. c #FE4C00",
"v. c #EE5601",
"b. c #E25A00",
"n. c #FD5200",
"m. c #F35C00",
"M. c #FC5B00",
"N. c #F45401",
"B. c #C96207",
"V. c #CE6508",
"C. c #C96C07",
"Z. c #D56403",
"A. c #DC6000",
"S. c #D66802",
"D. c #DA6B05",
"F. c #D47401",
"G. c #E36000",
"H. c #EA6300",
"J. c #EF6B00",
"K. c #F66500",
"L. c #FB6300",
"P. c #F66C00",
"I. c #FD6C00",
"U. c #F77100",
"Y. c #FC7500",
"T. c #FD7C00",
"R. c #FE8400",
"E. c #FE8C00",
"W. c #FE9500",
"Q. c #FF9B00",
"!. c #FFA400",
"~. c #FFAD00",
"^. c #FFB500",
"/. c #FFBB00",
"(. c #FFC200",
"). c #FFCD00",
"_. c #FFD300",
"`. c #FFDD00",
"'. c #FFE100",
"]. c #FFEB00",
"[. c #FFF200",
"{. c yellow",
"}. c None",
/* pixels */
"}.}.}.}.}.}.}.}.}.}.}.}.}.}.}.}.}.}.}.}.}.}.}.}.}.}.}.}.}.}.}.}.}.}.}.}.}.}.}.}.}.}.}.}.}.}.}.}.}.}.}.}.}.}.}.}.}.}.}.}.}.}.}.}.",
"}.}.}.}.}.}.}.}.}.}.}.#.}.}.}.}.}. .}.}.}.}.}.}.}.}.}.}.}.}.}.}.}.}.}.&.}.}.}.}.}.}.}.}.}.}.}.}.}.}.}.}.}.-.n.}.}.}.}.` }.}.}.}.",
"}.}.[ }.}.}.}.}.}.}.}. .>.}.}.}.}. .| }.}.}.}.}.}.}.}.}.}.}.}.}.}.}.%.#.}.}.}.}.}.}.}.}.}.}.}.}.}.}.}.}.&.M.h.}.}.}.} T }.}.}.}.",
"}.}.{ #.}.}.}.}.}.}.}.}.;.x.}.}.}.}.:.#.}.}.}.}.}.}.}.}.}.}.}.}.}.}.&.=.}.}.}.}.}.}.}.}.}.}.}.}.}.}.}.&.n.x.}.}.}.c.] }.}.}.}.}.",
"}.}.}.` x. .}.}.}.}.}.}.&.M.&.}.}.}.%.-.#.}.}.}.}.}.}.}.}.}.}.}.}.=.&.:.}.}.}.}.}.}.}.}.}.}.}.}.}.%.=.>.K.+.}. .x.k.}.}.}.}.}.}.",
"}.}.}.}.-.n.:. .}.}.}.}.%.>.L.&.&.}.#.n.=.=.}.}.=.&.}.}.}.}.}.}.}.*.&.n.+.}.}.}.}.}.}.}.}.}.}.}.#.%.>.K.l.] #.>.v.] }.}.}.}.}.}.",
"}.}.}.}.T -.n.-.%.}.}.}.}.&.n.c.&.%.&.n.x.&.%.&.&.&.=.=.}.}.}.}.&.*.=.k.*.}.}.}.&.}.}.}.}.}.}.=.&.>.n.M.&.&.>.K.*.}.}.}.}.}.}.}.",
"}.}.}.}.}.{ >.n.z.=.&.}.}.&.l.K.n.=.=.l.M.z.&.&.l.l.=.&.=.=.}.=.&.=.l.v.=.}.}.*.=.}.}.}.=.=.=.&.z.n.U.=.&.z.T.k.] }.}.}.}.}.}.}.",
"}.}.}.}.}.Q &.>.L.c.l.&.}.*.=.n.U.c.:.x.M.c.c.c.c.c.c.c.=.=.:.=.=.=.m.l.=.+.@.=.+.}.j.=.=.=.j.c.c.I.n.:.z.P.m.&.O.}.}.}.}.}.}.}.",
"}.}.}.}.}.}.] &.c.L.n.l.&.&.&.c.P.P.c.l.M.M.c.L B 9 X.c.n.n.x.=.=.x.P.l.=.O.x.:.*.=.j.=.z.n.c.c.U.L.z.z.Y.T.&.| }.}.}.}.}.}.}.}.",
"}.}.}.}.}.}.}.+.&.c.E.n.c.j.=.x.n.R.I.z.c.P.^ 3 e.Z > 8 e e c.c.l.c.P.x.=.j.=.=.=.c.^ x e k k L.T.k e U.T.l.%.}.}.}.}.}.}.}.}.}.",
"}.}.}.}.}.}.}.}. .&.c.R.n.c.:.=.c.P.R.n.c.Y.u > 5.> 3 3 2 >   X.n.L.L.l.=.c.=.l.^ = 7 Z Z Z B R.w.3 D.W.9.>.&.%.}.}.}.}.}.}.}.}.",
"}.}.}.}.}.}.}.}.O.%.l.n.T.n.n.=.x.n.W.R.n.M.U.> n _ D = O X X * X.Y.n.z.c.M.l.n.# Z f D D D T.Y.x D.Q.w.3 9 >.=.}.}.}.}.}.}.}.}.",
"}.}.}.}.}.}.}.}.}.| &.z.n.T.L.c.:.n.P.E.I.K.R.6.J H.R D D r D w q T.M.c.n.n.n.; 7 f D H R P.R.k.P.Q.E.u # O ' &.}.}.}.}.}.}.}.}.",
"}.}.}.}.}.}.}.}.}.] &.%.n.n.E.I.c.n.n.W.R.U.K.Y.R P.~ R H T T D / Y.B ) P.n.^ 2 1 D J ~ J.R.m.m.R.E.K D # o L -.#.}.}.}.}.}.}.}.",
"}.}.}.}.}.}.}.}.}.%.%.&.l.n.n.E.I.n.n.L.!.I.U.Y.y.T.k.%.' ~ ~ ~ d.Y._ e.N.c., > + v ~ h.R.T.P.T.E.b.G w # + L l.%.O.}.}.}.}.}.}.",
"}.}.}.}.}.}.}.}.%.=.l.c.c.c.n.M.R.P.n.c.!.Q.I.I.I.f.m.&.>.+. .' P.T.Y Z.n % + r D H u.R.Y.L.Y.W.K.] J G i # ..c.&.#.}.}.}.}.}.}.",
"}.}.}.}.}.}.}.}.%.z.n.k $ $ 9 X.n.T.W.n.K.`.T.W.L.I.Y.' &.-.>.x.I.U.V U.D D l T T ~ J.R.M.I.W.R.*.~ J r f 5 # ..&.%.}.}.}.}.}.}.",
"}.}.}.}.}.}.}.*.c.E # 7 Z 1 > + e u T.W.L.!./.Y.E.K.I.y.' %.&.v.M.Y.D.p.D D Q | &.P.R.Y.L.Q.E.k.] ~ J D f 7 > L :.&.}.}.}.}.}.}.",
"}.}.}.}.}.}.}.:.^ 1 Z c D D w q w # ,.R.R.Q.`.!.!.T.Y.P.~ ~ ~ T.M.P.R.y.~ T | >.k.R.Y.I.!.E.b.' ~ ~ D D 5 > # 8 l.&.}.}.}.}.}.}.",
"}.}.}.}.}.}.&.z.w # D D R ] R H r G ; B.E.T.Q.(.~.!.L.I.H J i.I.Y.Y.I.-.+.| %.k.R.Q.Y.Q.E.Y.~ ! R G D D # + O   :.&.}.}.}.}.}.}.",
"}.}.}.}.}.=.%.c.& # = D G R ] ] T T G l g.R.R.E.(./.R.M.f.t.R.Y.T.M.b.] ] ] ~ P.R.Y.!.!.T.W G D D D D w # X X w l.%.}.}.}.}.}.}.",
"}.}.}.}.*.=.:.c.O O + # > d v Q ] *.] R H _ Y.^.I.`.~.(.I.R.I._.T.I.6.~ ~ ~ P.R.Y.W.!.R.p.D D D D D D s # X . @.:.%.}.}.}.}.}.}.",
"}.}.}.}.=.=.:.c.k 2 7 f G T |  .%.>.>.%.~ D D g.E.Q.).`.!.L.^.{.E.T./ G J _ R.Q.T.^.Y.Y.D D x f D D j Z 7 # L x.=.}.}.}.}.}.}.}.",
"}.}.}.' =.&.l.c.> Z v J ~ | >.c.z. .+.%.~ J D t.Y.E.~.`.].!.'.{.E.T._ D / R.W.T._.T.Y.t 0 3 Z 7 Z Z Z Z Z 7 9 c.=.=.}.}.}.}.}.}.",
"}.}.}.' =.&.l.e Z r D ! | #.>.>.:.~ R ' &.! D G.R.L.Y.~.].{.{.{.).W.Y.t.R.W.M.(.T.Y.a.4.> 3 3 3 3 Z Z Z Z Z > ..c.=.%.}.}.}.}.}.",
"}.}.}.+.&.:.z.= Z J ' -.l.&.&.&.| G H !  .%.G b C Y.Y.Y.~.].{.{.).[.I.T.R.M./.Q.Y.T.Y.- O + > > 2 3 7 Z Z Z 5 + X.=.&.}.}.}.}.}.",
"}.}.}.&.&.z., Z v ~ #.z.>.c.| ' H D D R ~ ' ~ D d 3 B.R.I.~.{.{.{.{.R.M.M.~.(.Y.Y.T.< m ,.t O # # > 3 3 5 3 > # 8 :.&.}.}.}.}.}.",
"}.}. .=.z.= > f D ~  .&.>.%.] ~ J D x D H H G r d 1 <.Q.L.~.`.{.{.{.~.W.^.{.!.M.Y.T.Y.Y.M O X O + + # # # + # +   z.&.}.}.}.}.}.",
"}.}.%.=.c.+ 7 b D ~ ' %.&.>.&.' R D a g D D D x 3 @ ,.R.E.~.`.{.{.{.].[.{.{.R.M.L.Y.Y.a.,.t X X X O X O + # O o w x.&.}.}.}.}.}.",
"}.}.%.:.e # 7 c D G ~ ~  .>.>.+.~ D 3 Z g f Z 7 > + ,.E.I.~.`.{.{.{.{.{.{.{.~.Q.E.E.Y.L.L.L.L.L.T.,.,.,.,.,.o . @.l.=.}.}.}.}.}.",
"}.}.%.l.e # 2 s D D D J !  .%.| ~ ] v i 3 3 2 > + o ,.Y.W.~.'.{.{.{.{.{.{.{.{.].`.(.^.Q.Q.W.E.Y.K.I.M M o o   y.c.=.&.}.}.}.}.}.",
"}.}.%.&.e + # 3 b D D D R ~ ~ ~ ~ +.&.G l 3 @ + + X T.W.).`.{.{.{.{.{.{.{.{.{.{.{.).).).).)./.^.~.W.C.,.K U n.n.l.&.*.&.&.}.}.}.",
"}.}.%.%.~ X @ 3 5 f f g D G J G G R ] ~ D r > O g.S.R.~.].{.{.{.{.{.{.{.{.{.{.{.].~.~.W.M.M.L.Y.Y.(.`.`.W.L.n.n.n.n.c.x.&.%.&.}.",
"}.}.}.&.z.8 + > > 3 3 Z g D D D D D G H D D > O T.R.T.~.{.{.{.{.{.{.'./.(.].{.{.{.].~.E.R.R.E.R.Y.P.Y.Y.^.W.E.E.L.L.c.c.c.:.l.%.",
"}.}.}.+.&.X.X + @ @ > 3 6 Z f f f Z l D D 4 2 <.R.^.I.~.{.{.{.{.{.`.~.~.~.~.(.].].).].(.R.W.T.h.%.Q 6.M q.U.Y.Y.Y.Y.P.T.M.M.c.c.",
"}.}.}.}.&.&.X.X O O # $ 3 3 3 3 3 3 3 3 3 3 # S.R.!.W.`.{.{.{.{.{./.~.T.M.Y.!.~.].(.~.).!.R.Y.R +.| H l > ) n.n.n.c.c.M.n.n.M.:.",
"}.}.}.}.}.+.=.X.  . X O > 2 > @ @ @ # > > + m W.E.R.).{.{.{.{.{.{.~.R.I.T.Y.M.R.~.].~.~.~.Q.Y.U J ! G G 7 + ) c.=.=.l.l.=.&.-.&.",
"}.}.}.}.}.%.:.c.X . X X O @ @ + O O N <.,.L.I.L.Q.).{.{./.~.~._.{.~.I.T.Y.Y.R.L.I.~._.W.M.Y.E.Y.l D D f 7 # : n.=.*.}.}.}.}.}.}.",
"}.}.}.}.}.%.l.e + > X X o O O X O ,.W.Q.Q.Q.W.`.{.{.{.!.~.R.!.~.(.).M./ D Q k.R.Y.Y.~./.I.Y.R.W.B.p d 5 1 O   c.l.=.}.}.}.}.}.}.",
"}.}.}.}.&.#.:.e + 1 > X X X o O F.!.!.~.`.].{.{.{.].).Y.M.M.M.R.~.~.L.D D ~ %.x.n.M.I.~.Q.I.0.Y.Y.Y.d # # X   n.l.&.}.}.}.}.}.}.",
"}.}.}.}.%.&.&.e O @ 2 1 + o u W.Q.E.~.{.{.'./.~.~.(.Y.Y.R.!.!.Y.W.~.T.U D ~ ' %.&.#.K.Y.!.Q.Y.1.B.Y.R.y X . y.n.=.&.}.}.}.}.}.}.",
"}.}.}.}.#.%.%.z.8 O O # # ,.Q.R.T.Q.).{.'.Q.I.M.W.~.I.m.u.y.H.!.I.!.T._ D R ~ ~ ] ] %.K.I.!.Y.R.I A Y.E.^ y.n.c.=.&.}.}.}.}.}.}.",
"}.}.}.}.}.%.&.>.) X X X S.R.w.U.R.~.).).W.T.!.R.M.R.L.%.-.&.~ ( A.I.Q._ D D J ~ ~ !  .z.x.Y.E.Y.A.d h r.R.M.n.n.=.*.}.}.}.}.}.}.",
"}.}.}.}.}.%.&.%.c...Y E.8.j 9.T.!.!._.R.!.L.x.H.T.T.k.-.-.:.] R D L.Q.I.b D D D G ~ ~  .&.=.Y.R.Y.g.5 > 7.T.M.n.z.}.}.}.}.}.}.}.",
"}.}.}.}.}.}.%.-.z.M.T.M.o V R.!.Y.!.Y.Y.y.] ~ P.E.T.k.c.:.:.] ~ D t.T.W.V.g b D D R ~ ~ ] %.h.H.E.Y.s.5 0 M.P.U.n.n.}.}.}.}.}.}.",
"}.}.}.}.}.O.&.z.K.P.c.z.Y R.!.E.E.W.Y.E ~ Q J I.!.E.k.c.-.%.' ~ D t.I.!.R.4.c D D D R ~ ~ ~ ~ ~ H.R.R.4.+ n.n.Y.L.c.*.}.}.}.}.}.",
"}.}.}.}.#.=.n.L.c.:.c.c.U.W.R.R.E.Y.K D D G / E.!.W.h.>.&.~ T G D D Y.E.E.Y.s D D D D J ~ ~ ~ T D / E.W.h L :.:.N.M.c.}.}.}.}.}.",
"}.}.}. .&.c.M.:.&.:.z.Y.R.T.R.!.Y.i i d p , D.!.!.W.k.%.%.~ ~ D D D V.R.Q.A 7 a D D D D D D D D D c C R.W.y.c.=.&.=.z.-.}.}.}.}.",
"}.}.} &.m.=.*.#.%.z.I.W.L.T.Q.R.= # # > > X E.E.Q.W.k.%.' ~ J D D G C P.~.V 2 2 a r D D D D D D c Z 2 y q.R.M.=.&.*.%.&.}.}.}.}.",
"}.{ | k.#.| ] %.>.n.R.L.U.W.R.= o O O + X t.T.K.!.b.' ~ ~ ~ D D D f 7 B.Q.R.# 2 7 7 Z Z g f d f 7 2 # X   I.T.n.=.&.#. .&.}.}.}.",
"}.{ +.}.}.}. .&.c.T.M.m.R.E.n.)       U @.T.L.L.W.E ~ ~ T G D D c Z 3 h E.R.# # $ 2 3 3 5 > 7 > > # O . y.n.n.U.n.&.&. .}.}.}.}.",
"}.}.}.}.}.' %.c.T.z.n.E.T.c.z.c.n.c.c.n.L.I.c.T.s.r D D D D D Z Z 7 3 # a.!.M + # + # # # # o # O O . w n.:.z.n.P.c.&. . .}.}.}.",
"}.}.}.}.}. .c.I.z.n.R.Y.c.x.&.&.&.&.:.n.T.n.N.T.L D D D D D d 3 7 > $ + y E.M   + # + # # # O   K K y.l.=.=.&.:.z.L.c.#.#.}.}.}.",
"}.}.}.}.| :.m.:.>.T.L.>.:.%.%.}.}.}.x.L.m.c.T.9.l D D D D i > > # # # + X T.T.X   O O O O O o L n.l.l.&.&.&.}.}.%.>.M.x.#. .}.}.",
"}.}.}. .=.:.#.;.I.L.z.:.&.%.}.}.}.%.z.M.=.c.W.B 1 f f d 3 # + O O O O X o ,.T.:     o X o o w c.:.=.+.}.}.}.}.}.}.}.=.n.l. .%.}.",
"}.}.}. .}  .%.I.L.>.=.%.}.}.}.}.}.*.n.&.&.n.T.e # > , > # + # . . X X X . y.T.M.n.c.U . . w c.-.%.}.}.}.}.}.}.}.}.}.}.}.>.>.{ { ",
"}.}.}.}.}.+.z.n.>.%.%.}.}.}.}.}.}.:.:.*.l.L.n.z.8 + # @ # # O o X       y.n.L.T.c.n.c.c.z.z.&.&.}.}.}.}.}.}.}.}.}.}.}.}.}.}.}.{ ",
"}.}.}.}.| c.M.>.%.| }.}.}.}.}.}.}.}.}.&.l.K.l.:.) . O # O o o o   @.:.:.:.&.z.K.n.z.=.:.&.%.%.}.}.}.}.}.}.}.}.}.}.}.}.}.}.}.}.}.",
"}.}.}.` ;.m.-.{ O.}.}.}.}.}.}.}.}.}.}. .:.k.%.&.z.X.. X o o . w :.=.%.}.+.%.l.n.L.>.%.&.%.| }.}.}.}.}.}.}.}.}.}.}.}.}.}.}.}.}.}.",
"}.}.}.;.c. .{ }.}.}.}.}.}.}.}.}.}.}.}.%.:.%.%.%.}.&.Q G G G o.l.&.}.}.}.}.}.%.z.L.z.=.}.}.}.}.}.}.}.}.}.}.}.}.}.}.}.}.}.}.}.}.}.",
"}.}.$.=.| }.}.}.}.}.}.}.}.}.}.}.}.}.}.%.#.#.%.}.}.}.| O.%.O.}.}.}.}.}.}.}.}.}.:.z.n.;.}.}.}.}.}.}.}.}.}.}.}.}.}.}.}.}.}.}.}.}.}.",
"}.}.} { }.}.}.}.}.}.}.}.}.}.}.}.}.}.}.%.%.#.}.}.}.}.}.}.}.}.}.}.}.}.}.}.}.}.}.}.>.M.>.#.}.}.}.}.}.}.}.}.}.}.}.}.}.}.}.}.}.}.}.}.",
"}.} F }.}.}.}.}.}.}.}.}.}.}.}.}.}.}.}.#.%.}.}.}.}.}.}.}.}.}.}.}.}.}.}.}.}.}.}.}.}.>.>.&.}.}.}.}.}.}.}.}.}.}.}.}.}.}.}.}.}.}.}.}."
};
