/* XPM */
static char *result[] = {
/* columns rows colors chars-per-pixel */
"64 65 183 2 ",
"   c #BA0100",
".  c #BE0A00",
"X  c #BA0909",
"o  c #BE2D2B",
"O  c #C40100",
"+  c #CB0401",
"@  c #C20900",
"#  c #CC0900",
"$  c #D20000",
"%  c #DD0100",
"&  c #D20B00",
"*  c #C21700",
"=  c #CC1200",
"-  c #C41A00",
";  c #CB1E00",
":  c #D51B00",
">  c #DB1E00",
",  c #E10100",
"<  c #EC0100",
"1  c #ED0808",
"2  c #F50201",
"3  c #FA0000",
"4  c #F20A00",
"5  c #FA0B00",
"6  c #F90909",
"7  c #FA1000",
"8  c #FB1A01",
"9  c #CD2300",
"0  c #CA2B00",
"q  c #D52300",
"w  c #DE2400",
"e  c #D32C00",
"r  c #CC3100",
"t  c #D53100",
"y  c #D93700",
"u  c #DD3F00",
"i  c #D43F01",
"p  c #E02600",
"a  c #E52C00",
"s  c #FA2300",
"d  c #FD2B00",
"f  c #EF3500",
"g  c #F43900",
"h  c #FC3D00",
"j  c #CF3C28",
"k  c #D44300",
"l  c #D64B01",
"z  c #DD4400",
"x  c #D85200",
"c  c #DC5F01",
"v  c #E14300",
"b  c #E34800",
"n  c #FF4400",
"m  c #FF4A01",
"M  c #F74A08",
"N  c #FF4D09",
"B  c #F34D00",
"V  c #E65101",
"C  c #EB5400",
"Z  c #FE5500",
"A  c #FF5B00",
"S  c #FF5C0C",
"D  c #FF510C",
"F  c #E24C1E",
"G  c #FF5C13",
"H  c #FF5D19",
"J  c #FB5316",
"K  c #EB6200",
"L  c #E06B00",
"P  c #FE6400",
"I  c #F46B00",
"U  c #FD6C00",
"Y  c #F76808",
"T  c #E47501",
"R  c #E87B00",
"E  c #E67D01",
"W  c #FF7400",
"Q  c #FE7B00",
"!  c #F7780A",
"~  c #FD7B0B",
"^  c #F37C00",
"/  c #FE611E",
"(  c #FD7614",
")  c #CE4733",
"_  c #D35038",
"`  c #EA4522",
"'  c #FC593C",
"]  c #FF6A25",
"[  c #FF7422",
"{  c #FF702C",
"}  c #FF7E28",
"|  c #FF7430",
" . c #D96749",
".. c #D76D51",
"X. c #EB8A01",
"o. c #FE8300",
"O. c #F08A00",
"+. c #FE8C00",
"@. c #FF810A",
"#. c #EF9101",
"$. c #FF9400",
"%. c #FF9C00",
"&. c #FF9309",
"*. c #FF990A",
"=. c #F59A00",
"-. c #F8831C",
";. c #FEA300",
":. c #FEAC00",
">. c #FFA20A",
",. c #FFAD08",
"<. c #FDB400",
"1. c #FFBB00",
"2. c #FF8621",
"3. c #FF9D2A",
"4. c #FF9925",
"5. c #EF8734",
"6. c #FF8E32",
"7. c #FF813E",
"8. c #FFB628",
"9. c #FFB330",
"0. c #FFC300",
"q. c #FFC509",
"w. c #FFC711",
"e. c #FFC814",
"r. c #FFCA1A",
"t. c #FFCC22",
"y. c #FFC525",
"u. c #FFCD3B",
"i. c #FFC43E",
"p. c #FFD033",
"a. c #FFD23C",
"s. c #FF8642",
"d. c #FF8F4A",
"f. c #FF904C",
"g. c #FF9653",
"h. c #FF9B54",
"j. c #FFA74C",
"k. c #FFB143",
"l. c #FFA753",
"z. c #FFA25C",
"x. c #FFA95F",
"c. c #FFB451",
"v. c #FFBE53",
"b. c #FFA360",
"n. c #FFAA65",
"m. c #FFAA68",
"M. c #F9A36E",
"N. c #FFB46E",
"B. c #FFBC64",
"V. c #FFB672",
"C. c #F1B27E",
"Z. c #FEB27E",
"A. c #FFCF44",
"S. c #FFD547",
"D. c #FFD548",
"F. c #FFD953",
"G. c #FFDB5A",
"H. c #FFD25E",
"J. c #FFC965",
"K. c #FFDB65",
"L. c #FFDE6B",
"P. c #FFC27E",
"I. c #FFDF73",
"U. c #FFDC7C",
"Y. c #FFE26E",
"T. c #FFE172",
"R. c #FFE27A",
"E. c #FFC886",
"W. c #FFCC89",
"Q. c #FFD581",
"!. c #F7CA90",
"~. c #FFD391",
"^. c #FFD996",
"/. c #FFDF99",
"(. c #FFE482",
"). c #FFE48B",
"_. c #FFE594",
"`. c #FFE992",
"'. c #FFEA9C",
"]. c #FDE6A5",
"[. c #FFECA3",
"{. c #FFEEAC",
"}. c None",
/* pixels */
"}.}.}.}.}.}.}.}.}.}.}.}.}.}.}.}.}.}.}.}.}.}.}.}.}.}.}.}.}.}.}.}.}.}.}.}.}.}.}.}.}.}.}.}.}.}.}.}.}.}.}.}.}.}.}.}.}.}.}.}.}.}.}.}.",
"}.}.}.}.}.}.}.}.}.}.}.}.}.}.}.}.}.}.}.}.}.}.}.}.}.}.}.}.}.}.}.}.}.}.}.}.}.}.}.}.}.}.}.}.}.}.}.}.}.}.}.}.}.}.}.}.}.}.}.}.}.}.}.}.",
"}.}.}.}.}.}.}.}.}.}.}.}.}.}.}.}.}.}.}.}.}.}.}.}.}.}.}.}.}.}.}.}.}.}.}.}.}.}.}.}.}.}.}.}.}.}.}.}.}.}.}.}.}.}.}.}.}.}.}.}.}.}.}.}.",
"}.}.}.}.}.}.}.}.}.}.}.}.}.}.}.}.}.}.}.}.}.}.}.}.}.}.}.}.}.}.}.}.}.}.}.}.}.}.}.}.}.}.}.}.}.}.}.}.}.}.}.}.}.}.}.}.}.}.}.}.}.}.}.}.",
"}.}.}.}.}.}.}.}.}.}.}.}.}.}.}.}.}.}.}.}.}.}.}.}.}.}.}.}.}.}.}.}.}.}.}.}.}.}.}.}.}.}.}.}.}.}.}.}.}.}.}.}.}.}.}.}.}.}.}.}.}.}.}.}.",
"}.}.}.}.}.}.}.}.}.}.}.}.}.}.}.}.}.}.}.}.}.}.}.}.}.}.}.}.}.}.}.}.}.}.}.}.}.}.}.}.}.}.}.}.}.}.}.}.}.}.}.}.}.}.}.}.}.}.}.}.}.}.}.}.",
"}.}.}.}.}.}.}.}.}.}.}.}.}.}.}.}.}.}.}.}.}.}.}.}.}.}.}.}.}.}.}.}.}.}.}.}.}.}.}.}.}.}.}.}.}.}.}.}.}.}.}.}.}.}.}.}.}.}.}.}.}.}.}.}.",
"}.}.}.}.}.}.}.}.}.}.}.}.}.}.}.}.}.}.}.}.}.}.}.}.}.}.}.}.}.}.}.}.}.}.}.}.}.}.}.}.}.}.}.}.}.}.}.}.}.}.}.}.}.}.}.}.}.}.}.}.}.}.}.}.",
"}.}.}.}.}.}.}.}.}.}.}.}.}.}.}.}.}.}.}.}.}.}.}.}.}.}.}.}.}.}.}.}.}.}.}.}.}.}.}.}.}.}.}.}.}.}.}.}.}.}.}.}.}.}.}.}.}.}.}.}.}.}.}.}.",
"}.}.}.}.}.}.}.}.}.}.}.}.}.}.}.}.}.}.}.}.}.}.}.}.}.}.}.}.}.}.}.}.}.}.}.}.}.}.}.}.}.}.}.}.}.}.}.}.}.}.}.}.}.}.}.}.}.}.}.}.}.}.}.}.",
"}.}.}.}.}.}.}.}.}.}.}.}.}.}.}.}.}.}.}.}.}.}.}.}.}.}.}.}.}.}.}.}.}.}.}.}.}.}.}.}.}.}.}.}.}.}.}.}.}.}.}.}.}.}.}.}.}.}.}.}.}.}.}.}.",
"}.}.}.}.}.}.}.}.}.}.}.}.}.}.}.}.}.}.}.}.}.}.}.}.}.}.}.}.}.}.}.}.}.}.}.}.}.}.}.}.}.}.}.}.}.}.}.}.}.}.}.}.}.}.}.}.}.}.}.}.}.}.}.}.",
"}.}.}.}.}.}.}.}.}.}.}.}.}.}.}.}.}.}.}.}.}.}.}.}.}.}.}.}.}.}.}.}.}.}.}.}.}.}.}.}.}.}.}.}.}.}.}.}.}.}.}.}.}.}.}.}.}.}.}.}.}.}.}.}.",
"}.}.}.}.}.}.}.}.}.}.}.}.}.}.}.}.}.}.}.}.}.}.}.}.}.}.}.}.}.}.}.}.}.}.}.}.}.}.}.}.}.}.}.}.}.}.}.}.}.}.}.}.}.}.}.}.}.}.}.}.}.}.}.}.",
"}.}.}.}.}.}.}.}.}.}.}.}.}.}.}.}.}.}.}.}.                        }.}.}.}.}.}.}.}.}.}.}.}.}.}.}.}.}.}.}.}.}.}.}.}.}.}.}.}.}.}.}.}.",
"}.}.}.}.}.}.}.}.}.}.}.}.}.}.}.}.}.}.}.}.                        }.}.}.}.}.}.}.}.}.}.}.}.}.}.}.}.}.}.}.}.}.}.}.}.}.}.}.}.}.}.}.}.",
"}.}.}.}.}.}.}.}.}.}.6 5 n w                                               }.}.}.}.}.}.}.}.}.}.}.}.}.}.}.}.}.}.}.}.}.}.}.}.}.}.}.",
"}.}.}.}.}.}.}.}.}.n d d n f p p p w p p p p p p p % % % > v v v L L L -   }.}.}.}.}.}.}.}.}.}.}.}.}.}.}.}.}.}.}.}.}.}.}.}.}.}.}.",
"}.}.}.}.}.}.}.}.}.n m n n m m n n n n m n m n n n 5 3 3 h Q Q o.0.0.0.0   .     }.}.}.}.}.}.}.}.}.}.}.}.}.}.}.}.}.}.}.}.}.}.}.}.",
"}.}.}.}.}.}.}.W A n ;.1.1.<.<.A n n Q <.1.1.1.o.n n m <.<.1.1.1.0.0.0.Q I I u         }.}.}.}.}.}.}.}.}.}.}.}.}.}.}.}.}.}.}.}.}.",
"}.}.}.}.}.}.}.W W U $.%.%.%.%.} | [ 3.p.q.0.0.%.U m m %.%.;.%.=.%.%.%.$.+.+.K 9 9 ;     }.}.}.}.}.}.}.}.}.}.}.}.}.}.}.}.}.}.}.}.",
"}.}.}.}.}.Q W Q %.0.Z n n n n E.{.U._.{.t.0.0.0.0.A n n n n n n n n n :.0.0.;.Q W I       }.}.}.}.}.}.}.}.}.}.}.}.}.}.}.}.}.}.}.",
"}.}.}.}.}.Q W Z U W m m $.4.l.Q.).U.(.).F.S.L.L.Y.N.z.$.U n o.o.: : : i l l i e e e , $     }.}.}.}.}.}.}.}.}.}.}.}.}.}.}.}.}.}.",
"}.}.}.! W W W n n n n A 0.u.U.U.U.U.T.Y.Y.T.{.{.{.{.'.q.+.n :.<.                  O 3 ,     O 3 1 }.}.}.}.}.}.}.}.}.}.}.}.}.}.}.",
"}.}.~ %.1.A n n n n n G U.).{.{.~.N N m N m N N N ,.0.0.1.1.0 .    .].].].].].].].!.            X }.}.}.}.}.}.}.}.}.}.}.}.}.}.}.",
"}.}.+.$.;.m m P Z n n G ).'.{.W.V.| { { { { { H n :.0.0.:.#.-     _ C.C.C.Z.Z.Z.Z.M.r 9 + + + X }.}.}.}.}.}.}.}.}.}.}.}.}.}.}.}.",
"W o.0.o.n n Z 0.o.n n H {.{.{.] ] ].{.{.{.{.{.z.n :.0.0.L               O 3 3 3 3 8 0.Q 3 3 6 }.}.}.}.}.}.}.}.}.}.}.}.}.}.}.}.}.",
"Q o.0.o.n n S L.6.n o.*.D.R.[.] S A.D.D.S.S.S.8.$.1.<.x 0     O % % % , % $ $ $ $ & l 0 $ $ $         }.}.}.}.}.}.}.}.}.}.}.}.}.",
"W o.1.Q n n H {.g.n :.0.q.G.[.] A 1.0.0.q.q.q.q.0.0.:..     . @ 5 5 5 5 4 . . . . . . . . . . .       X }.}.}.}.}.}.}.}.}.}.}.}.",
"W W Z m n n H {.g.n <.r.[.[.{.y.1.0.0.0.(.'.[.G.0.0.<.n s 2 #.<.<.<.<.<.<.<.<.<.<.<.<.<.<.Q U I n 2 O           X }.}.}.}.}.}.}.",
"W U n A W m H {.g.n :.w.T.T.L.S.a.a.a.a.Y.T.T.a.0.0.1.W A n +.$.$.;.:.o.Q o.o.Q o.o.Q %.0.%.+.$.W n z k k q + $ + }.}.}.}.}.}.}.",
"W W n o.0.Z H {.g.n :.0.0.0.q.).{.{.{.{.r.0.0.0.0.0.0.0.0.0.A n n A Q 8 2 3 3 2 3 3 3 B 0.0.0.0.0.0.0.0.0.W 3 3 3       X.1.Q 5.",
"W W n A W x.V.{.v.$.1.0.0.p.L.'.'.D.k.s.( W W W W W W W K l q : : q e & $ $ $ $ $ $ $ > l B Z $.$.$.%.$.$.W m U W T z , y l e ..",
"W U m n n ^.{.{.F.0.0.0.0.F.{.{.).q.+.n n n n n n n n n w                                 < 5 W W W W W W W W :.0.0.W 2 +   X o ",
"n n n n m ^.{.{.F.0.K.K.0.q.q.).[.Y.a.0.A n n n n :.:..                     : n h h n a       . .   .   .     . .   X .     }.}.",
"n n n n n m.P.{.L.p.c.j.%.%.%.H.R.(.F.t.2.[ ( ( U $.O.            @ = j ) ) F Z Z Z U v             X     X   X     X     X }.}.",
"n n n n n n H {.{.{.] n n n n :.r.[.`.Y.Y.Y.Y.S.0.A h             > n E.{.{.B.W Q o.0.T             }.}.}.}.}.}.}.}.}.}.}.}.}.}.",
"}.}.n U $.%.&.7.s.| m.b.n n n P @.a.p.t.(.`.Y.G.S.>.+.a V E *     > n 9.i.' ` e e 0 k 0   c L     }.}.}.}.}.}.}.}.}.}.}.}.}.}.}.",
"}.}.m o.1.1.:.m m m W.W.n n n n A 1.1.1.(.'.Y.Y.Y.e.1.n Q 1.9 .   : n =.;.3 %   . . . .   O.=.    }.}.}.}.}.}.}.}.}.}.}.}.}.}.}.",
"}.}.n n m m A 0.1.1.S N n n n n n m m m ,.e.Y.Y.Y.w.<.m n m n g       . .       C Q <.U 2 5 4     }.}.}.}.}.}.}.}.}.}.}.}.}.}.}.",
"}.}.N n n n m ;.<.0.W P n n n ] | | H n &.>.c.J.(.r.1.U Z n P A = = = = = = = = I +.+.Z 3 < ,     }.}.}.}.}.}.}.}.}.}.}.}.}.}.}.",
"}.}.}.M n n n n o.0.0.:.n n m W.{.{.h.n n n n d.{.t.0.0.+.n :.<.n n n n n n n n ;.:.3 3 3 +       }.}.}.}.}.}.}.}.}.}.}.}.}.}.}.",
"}.}.}.Y P +.+.n A W W W $.3.l.^.{.{.^.V.N.n.n f.{.R.K.0.+.n U U n n n n n n n n P P + $ + O   }.}.}.}.}.}.}.}.}.}.}.}.}.}.}.}.}.",
"}.}.}.}.Q 1.:.n n m n Z 0.u.U.].{.].].{.].^.n d.{.]._.q.o.n n m m n m m m m n n n g           }.}.}.}.}.}.}.}.}.}.}.}.}.}.}.}.}.",
"}.}.}.}.}.~ W n o.0.A n n n n W.~.N n n n n n Q 0.o.W n n n :.0.0.0.0.0.0.0.L         X }.}.}.}.}.}.}.}.}.}.}.}.}.}.}.}.}.}.}.}.",
"}.}.}.}.}.-.( J ~ $.W W W A n h.h.N Z W W U Z +.0.P m d d d U Q Q ^ R R R R l         }.}.}.}.}.}.}.}.}.}.}.}.}.}.}.}.}.}.}.}.}.",
"}.}.}.}.}.}.}.}.}.n :.0.q.o.n n n n Q 0.0.1.W %.0.s 3 3 3 3 3 3 3 %             }.}.}.}.}.}.}.}.}.}.}.}.}.}.}.}.}.}.}.}.}.}.}.}.",
"}.}.}.}.}.}.}.}.}.}.W U W A m o.$.%.:.0.o.I q t k & $ + $ $ + $ $ O   % % }.}.}.}.}.}.}.}.}.}.}.}.}.}.}.}.}.}.}.}.}.}.}.}.}.}.}.",
"}.}.}.}.}.}.}.}.}.}.n n n n h %.<.<.<.<.Z g                           < 3 }.}.}.}.}.}.}.}.}.}.}.}.}.}.}.}.}.}.}.}.}.}.}.}.}.}.}.",
"}.}.}.}.}.}.}.}.}.}.}.}.}.}.3 5 5 7 7 7 + .     }.}.}.}.}.}.}.}.}.}.}.}.}.}.}.}.}.}.}.}.}.}.}.}.}.}.}.}.}.}.}.}.}.}.}.}.}.}.}.}.",
"}.}.}.}.}.}.}.}.}.}.}.}.}.}.3 3 3 3 3 3 O     }.}.}.}.}.}.}.}.}.}.}.}.}.}.}.}.}.}.}.}.}.}.}.}.}.}.}.}.}.}.}.}.}.}.}.}.}.}.}.}.}.",
"}.}.}.}.}.}.}.}.}.}.}.}.}.}.}.}.}.}.}.}.}.}.}.}.}.}.}.}.}.}.}.}.}.}.}.}.}.}.}.}.}.}.}.}.}.}.}.}.}.}.}.}.}.}.}.}.}.}.}.}.}.}.}.}.",
"}.}.}.}.}.}.}.}.}.}.}.}.}.}.}.}.}.}.}.}.}.}.}.}.}.}.}.}.}.}.}.}.}.}.}.}.}.}.}.}.}.}.}.}.}.}.}.}.}.}.}.}.}.}.}.}.}.}.}.}.}.}.}.}.",
"}.}.}.}.}.}.}.}.}.}.}.}.}.}.}.}.}.}.}.}.}.}.}.}.}.}.}.}.}.}.}.}.}.}.}.}.}.}.}.}.}.}.}.}.}.}.}.}.}.}.}.}.}.}.}.}.}.}.}.}.}.}.}.}.",
"}.}.}.}.}.}.}.}.}.}.}.}.}.}.}.}.}.}.}.}.}.}.}.}.}.}.}.}.}.}.}.}.}.}.}.}.}.}.}.}.}.}.}.}.}.}.}.}.}.}.}.}.}.}.}.}.}.}.}.}.}.}.}.}.",
"}.}.}.}.}.}.}.}.}.}.}.}.}.}.}.}.}.}.}.}.}.}.}.}.}.}.}.}.}.}.}.}.}.}.}.}.}.}.}.}.}.}.}.}.}.}.}.}.}.}.}.}.}.}.}.}.}.}.}.}.}.}.}.}.",
"}.}.}.}.}.}.}.}.}.}.}.}.}.}.}.}.}.}.}.}.}.}.}.}.}.}.}.}.}.}.}.}.}.}.}.}.}.}.}.}.}.}.}.}.}.}.}.}.}.}.}.}.}.}.}.}.}.}.}.}.}.}.}.}.",
"}.}.}.}.}.}.}.}.}.}.}.}.}.}.}.}.}.}.}.}.}.}.}.}.}.}.}.}.}.}.}.}.}.}.}.}.}.}.}.}.}.}.}.}.}.}.}.}.}.}.}.}.}.}.}.}.}.}.}.}.}.}.}.}.",
"}.}.}.}.}.}.}.}.}.}.}.}.}.}.}.}.}.}.}.}.}.}.}.}.}.}.}.}.}.}.}.}.}.}.}.}.}.}.}.}.}.}.}.}.}.}.}.}.}.}.}.}.}.}.}.}.}.}.}.}.}.}.}.}.",
"}.}.}.}.}.}.}.}.}.}.}.}.}.}.}.}.}.}.}.}.}.}.}.}.}.}.}.}.}.}.}.}.}.}.}.}.}.}.}.}.}.}.}.}.}.}.}.}.}.}.}.}.}.}.}.}.}.}.}.}.}.}.}.}.",
"}.}.}.}.}.}.}.}.}.}.}.}.}.}.}.}.}.}.}.}.}.}.}.}.}.}.}.}.}.}.}.}.}.}.}.}.}.}.}.}.}.}.}.}.}.}.}.}.}.}.}.}.}.}.}.}.}.}.}.}.}.}.}.}.",
"}.}.}.}.}.}.}.}.}.}.}.}.}.}.}.}.}.}.}.}.}.}.}.}.}.}.}.}.}.}.}.}.}.}.}.}.}.}.}.}.}.}.}.}.}.}.}.}.}.}.}.}.}.}.}.}.}.}.}.}.}.}.}.}.",
"}.}.}.}.}.}.}.}.}.}.}.}.}.}.}.}.}.}.}.}.}.}.}.}.}.}.}.}.}.}.}.}.}.}.}.}.}.}.}.}.}.}.}.}.}.}.}.}.}.}.}.}.}.}.}.}.}.}.}.}.}.}.}.}.",
"}.}.}.}.}.}.}.}.}.}.}.}.}.}.}.}.}.}.}.}.}.}.}.}.}.}.}.}.}.}.}.}.}.}.}.}.}.}.}.}.}.}.}.}.}.}.}.}.}.}.}.}.}.}.}.}.}.}.}.}.}.}.}.}.",
"}.}.}.}.}.}.}.}.}.}.}.}.}.}.}.}.}.}.}.}.}.}.}.}.}.}.}.}.}.}.}.}.}.}.}.}.}.}.}.}.}.}.}.}.}.}.}.}.}.}.}.}.}.}.}.}.}.}.}.}.}.}.}.}."
};
