/* XPM */
static char *_ee2a8e5f5a3445fdbf5908762be002b6WREv0Ps318PwoWK[] = {
/* columns rows colors chars-per-pixel */
"64 64 4 1 ",
"  c black",
". c #004080",
"X c navy",
"o c white",
/* pixels */
"                                                                ",
"                                                                ",
"                               . ..               XX            ",
"                            ..    .         X  X                ",
"                                .     .                         ",
"                             .    .        X    X               ",
"            .          ..      .   X.     .      X              ",
"                   .         X              X   X   X           ",
"         .                   X  .X..      XX   X        XX      ",
"      X                   ..XX. .  X   XoX    X X    X          ",
"       X        X       .   ....           .    X   X   X       ",
"   X      X           . .             .    .X    X              ",
"   X      X    .  .   ...X   .X .   X   XX X X X       X        ",
"             .   oX   .  . ...     .   ..    XXXX    X    X     ",
"  X       ...   X         .. .. .X   X    X .          X   X    ",
"                  XX  X .   . X   X     .             X   X     ",
"        X  .XX  ..    X.       . X  XXX X .        X   X        ",
"   X      .         X   . X   ..       .        X     X         ",
"X           .  X      .              X   XX      X  X   X       ",
"X  X XX X   X     X                   .                X        ",
" X     X                       .     .  XX   XX                 ",
"           X.    X. .   X   . XX .. .   . X   X XX X  X         ",
"            .  .X X . .   .X     .     .       XX   X           ",
"              ...   .  .       X.X    XX X   X      XX          ",
"          X. X           X       o  . X X      o  .             ",
"    X  X .   ..   .X     X  X           X    X    . X           ",
"        X  .            XX X                . .                 ",
"        .   .      .         X X        X .   XX     X          ",
"     .X.  .. ..     X  X         X    X     X X  ..      X      ",
"   .     X  X..     .        X   X       X .X    X.    .        ",
".     . .  .   . .  . X X            X   X   XX  . X  X     ..  ",
"    .      .    .. .     X XX  X    XXX  X    . .   X   XX      ",
" .                X  X XXX X    XXX  X    X       .   X.        ",
"      .    .   .  X   XX X    XXX           .     ..    X .     ",
".  .  . .    .  X    .  X  X        XX X         X      X       ",
"           .       .  X    X X  X  X X       .X  X      .   .   ",
"     .     .   ..                       .             .         ",
".      .. .        X X X        X       .      X . X     .      ",
"    . .    .  X    ..X        X               X            .    ",
"                  .  o  X..  X  .   X         .         .       ",
"                . X .   X.   .  X .  .    X     .. X    .       ",
"           .         X X   ..              XX.X         .       ",
"    ...     .     XX   XX X  X .   X.. .      X                 ",
"          . XX   XX X  X X  X ...      .          .             ",
"      X   .  X      XXXXX X. .  .    X.    X     XX.            ",
"          .    .   X   X.X..  .X    X        X    XX X          ",
"          o      XX   X   .      X  .X..       X                ",
"                   X    . X XX X  ..              X    XXX      ",
"        X    XX  X    ..  . X X .   ...  .  o X    X       X    ",
"      X         X    .X. X  .X   X X                      X     ",
"           X         .XX     X    .    .  .X      XX   X  X     ",
"        X        X    XX  X....     ....  .X X   XX  X          ",
"  X    X           X X.... XX  . ..X....    X      X            ",
"     XX X      X  XXX.X X  XX  .  .X        X             X     ",
"        X    X  X XXX    .    X  .  X           X X   XX        ",
"    X  XXXX XX XX X       X      X.            X   X XX     X   ",
"   X X    XX X        X X      . .   .         X  XX   X XX     ",
"                     X    ..      X         XX X X     X        ",
"        X   X       X  X .  .             X     XXX        X    ",
"          X  X          XX     .              X      X          ",
"      X    X X    X                                    XXX      ",
"         XX       XX X                         XX X   X         ",
"          X  X    X                            X    X           ",
"         X      XX                          X       X           "
};
