/* XPM */
static char *result[] = {
/* columns rows colors chars-per-pixel */
"64 64 30 1 ",
"  c black",
". c #00371B",
"X c #00391C",
"o c #004120",
"O c #005229",
"+ c #006532",
"@ c #004040",
"# c #006D6D",
"$ c #804000",
"% c #008000",
"& c #008040",
"* c #00A150",
"= c #00CA64",
"- c #5FC951",
"; c #7AFE68",
": c #FF8040",
"> c #009393",
", c #38FF9B",
"< c #6EFFB6",
"1 c #00C7C7",
"2 c #00D5D5",
"3 c cyan",
"4 c #17FFFF",
"5 c #BCFFB2",
"6 c #87FFC2",
"7 c #80FFFF",
"8 c #BBFFFF",
"9 c #CEFFE6",
"0 c white",
"q c None",
/* pixels */
"qqqqqqqqqqqqqqqqqqqqqqqqqqqqqqqqqqqqqqqqqqqqqqqqqqqqqqqqqqqqqqqq",
"qqqqqqqqqqqqqqqqqqqqqqqqqqqqqqqqqqqqqqqqqqqqqqqqqqqqqqqqqqqqqqqq",
"qqqqqqqqqqqqqqqqqqqqqqqqqqqqqqqqqqqqqqqqqqqqqqqqqqqqqqqqqqqqqqqq",
"qqqqqqqqqqqqqqqqqqqqqqqqqqqqqqq   qqqqqqqqqqqqqqqqqqqqqqqqqqqqqq",
"qqqqqqqqqqqqqqqqqqqqqqqqqqqqqq @## qqqqqqqqqqqqqqqqqqqqqqqqqqqqq",
"qqqqqqqqqqqqqqqqqqqqqqqqqqqqqq @## qqqqqqqqqqqqqqqqqqqqqqqqqqqqq",
"qqqqqqqqqqqqqqqqqqqqqqqqqqqqqqq   qqqqqqqqqqqqqqqqqqqqqqqqqqqqqq",
"qqqqqqqqqqqqqqqqqqqqqqqqqqqqqqq % qqqqqqqqqqqqqqqqqqqqqqqqqqqqqq",
"qqqqqqqqqqqqqqqqqqqqqqqqqqqqqqq % qqqqqqqqqqqqqqqqqqqqqqqqqqqqqq",
"qqqqqqqqqqqqqqqqqqqqqqqqqqqqqqq % qqqqqqqqqqqqqqqqqqqqqqqqqqqqqq",
"qqqqqqqqqqqqqqqqqqqqqqqqqqqqqqq % qqqqqqqqqqqqqqqqqqqqqqqqqqqqqq",
"qqqqqqqqqqqqqqqqqqqqqqqqqqqqqqq   qqqqqqqqqqqqqqqqqqqqqqqqqqqqqq",
"qqqqqqqqqqqqqqqqqqqqqqqqqqqqqq $:$ qqqqqqqqqqqqqqqqqqqqqqqqqqqqq",
"qqqqqqqqqqqqqqqqqqqqqqqqqqqqq $:::$ qqqqqqqqqqqqqqqqqqqqqqqqqqqq",
"qqqqqqqqqqqqqqqqqqqqqqqqqqqq         qqqqqqqqqqqqqqqqqqqqqqqqqqq",
"qqqqqqqqqqqqqqqqqqqqqqqqqq  444444444  qqqqqqqqqqqqqqqqqqqqqqqqq",
"qqqqqqqqqqqqqqqqqqqqqqqq  7444447778747  qqqqqqqqqqqqqqqqqqqqqqq",
"qqqqqqqqqqqqqqqqqqqqqqq 07422447778004447 qqqqqqqqqqqqqqqqqqqqqq",
"qqqqqqqqqqqqqqqqqqqqqq 0742244777700002447 qqqqqqqqqqqqqqqqqqqqq",
"qqqqqqqqqqqqqqqqqqqqq 044224477777888772447 qqqqqqqqqqqqqqqqqqqq",
"qqqqqqqqqqqqqqqqqqqq 74422444777777887772447 qqqqqqqqqqqqqqqqqqq",
"qqqqqqqqqqqqqqqqqqqq 44222447777777777772247 qqqqqqqqqqqqqqqqqqq",
"qqqqqqqqqqqqqqqqqqq 4422244477777777777722447 qqqqqqqqqqqqqqqqqq",
"qqqqqqqqqqqqqqqqqqq 4422244477777777777722247 qqqqqqqqqqqqqqqqqq",
"qqqqqqqqqqqqqqqqqqq 4444444477777777777444447 qqqqqqqqqqqqqqqqqq",
"qqqqqqqqqqqqqqqqqqq 7737777777777777777777777 qqqqqqqqqqqqqqqqqq",
"qqqqqqqqqqqqqqqqq                              qqqqqqqqqqqqqqqqq",
"qqqqqqqqqqqqqq    :::$$$$$::::::$$$:::::::$$$:     qqqqqqqqqqqqq",
"qqqqqqqqqq    +++                              &+++    qqqqqqqqq",
"qqqqqqq   O&+++++&&&&***********************&&&&&++..+&   qqqqqq",
"qqqqqq X9,O+++++&OO+&*****&&*******&&******&+&&&&+o<<.&&&+ qqqqq",
"qqqq  &&XO&++++&X,,O*****+<<&*****+<<&****&<<.&&&+o96.+&&&+  qqq",
"qq  @@  &++++++&X9,O*****+9<&*****+9<&****&9<.&&&++oo+++&  @@  q",
"q @@@@@@    ++&&&XO&******++*******++******+.*&&+++++    @@@@@@ ",
"q @@@@@@@@ :     &&&&&&&&&&&&&&&&&&&&&&&&&&&&&&&     : ###@@@@@ ",
"q @#####@@@ : ###                               ### : ###@@@@@@ ",
"qq  ######@@ : ###>>>>>>1111111 : 11111>>>>>>>#### : ###@@@@@  q",
"qqqq  ####@@@ : @##>>>>>>111111 : 1111>>>>>>>>### : ##@@@@@  qqq",
"qqqqqq ####@@@ : ###>>>>>>11111 : 111>>>>>>>>### $ ##@@@@@ qqqqq",
"qqqqqqq   ##@@@ $ ###>>>>>11111 : 11>>>>>>>>>## $ ##@@@   qqqqqq",
"qqqqqqqqqq    @@ $ ##>>>>>>1111 : 11>>>>>>>>###$ ##    qqqqqqqqq",
"qqqqqqqqqqqqq      ####>>>>>111 : 11>>>>>>>###     qqqqqqqqqqqqq",
"qqqqqqqqqqqqqqq =&&                           &= qqqqqqqqqqqqqqq",
"qqqqqqqqqqqqqqqq =&&+++&&&&**********&&&+++++&= qqqqqqqqqqqqqqqq",
"qqqqqqqqqqqqqqqq  ==+++++&&&********&&++++++==  qqqqqqqqqqqqqqqq",
"qqqqqqqqqqqqqqqq :  ====++&&&**   **&+++====  $ qqqqqqqqqqqqqqqq",
"qqqqqqqqqqqqqqqq :$$    ====== ::: =====    ::$ qqqqqqqqqqqqqqqq",
"qqqqqqqqqqqqqqq $   ----       :::      ----   $ qqqqqqqqqqqqqqq",
"qqqqqqqqqqqqqq $ ------------- $$$ ------------ $ qqqqqqqqqqqqqq",
"qqqqqqqqqqqqq : ---;;;;;;;;----   ---;;;;;;;;--- $ qqqqqqqqqqqqq",
"qqqqqqqqqqqq : ;;;;;;;;;;;;;;-- & -;;5;;;;;;;;;-- : qqqqqqqqqqqq",
"qqqqqqqqqqq : ;;;;;;;;;;;;;;;;; & ;;555;;;;;;;;;;; : qqqqqqqqqqq",
"qqqqqqqqqq : ;;555;;;5;;;;;;5;; & ;;555;;;5;;;;;;;; : qqqqqqqqqq",
"qqqqqqqqq : ;;5555;;555;;;;555; & ;5555;;;5;;;;;555; : qqqqqqqqq",
"qqqqqqqq : ;555555;;555;;;5555; & ;55q55;5555;;55555; : qqqqqqqq",
"qqqqqqq : 55555555;55555;;55q5; & 55qq55;5555;;5555555 : qqqqqqq",
"qqqqqq     5qqqq55;555q5;;5qq55 & 55qq5555qq5;;55qqq5     qqqqqq",
"qqqqq ###@@ qqqq55555qq5;55qq5     qqqq55qqq55;5qqqq @@### qqqqq",
"qqqqq       qqqqq555qqq555qqq @###@ qqq55qqq5555qqqq       qqqqq",
"qqqqqqqqqqqqqqqqq55qqqq555qqq       qqqqqqqqq55qqqqqqqqqqqqqqqqq",
"qqqqqqqqqqqqqqqqqq5qqqqq5qqqqqqqqqqqqqqqqqqqq55qqqqqqqqqqqqqqqqq",
"qqqqqqqqqqqqqqqqqqqqqqqqqqqqqqqqqqqqqqqqqqqqqqqqqqqqqqqqqqqqqqqq",
"qqqqqqqqqqqqqqqqqqqqqqqqqqqqqqqqqqqqqqqqqqqqqqqqqqqqqqqqqqqqqqqq",
"qqqqqqqqqqqqqqqqqqqqqqqqqqqqqqqqqqqqqqqqqqqqqqqqqqqqqqqqqqqqqqqq"
};
