/* XPM */
static char *result[] = {
/* columns rows colors chars-per-pixel */
"64 64 148 2 ",
"   c black",
".  c gray4",
"X  c gray10",
"o  c gray11",
"O  c gray12",
"+  c #232323",
"@  c gray14",
"#  c #252525",
"$  c gray15",
"%  c #272726",
"&  c #282828",
"*  c #2A2A2A",
"=  c gray17",
"-  c #2E2E2D",
";  c gray18",
":  c #2F2F2F",
">  c #30302F",
",  c gray19",
"<  c #313131",
"1  c #323232",
"2  c gray20",
"3  c #343434",
"4  c #353535",
"5  c #363635",
"6  c gray21",
"7  c gray22",
"8  c #393939",
"9  c gray23",
"0  c #3C3C3C",
"q  c gray24",
"w  c #3E3E3E",
"e  c gray25",
"r  c #414140",
"t  c gray26",
"y  c #434343",
"u  c #444444",
"i  c gray27",
"p  c gray28",
"a  c #484848",
"s  c gray29",
"d  c gray30",
"f  c #4E4E4E",
"g  c gray31",
"h  c #505050",
"j  c gray32",
"k  c #555351",
"l  c #555555",
"z  c #565656",
"x  c #5C5856",
"c  c gray35",
"v  c #5A5A5A",
"b  c #5B5B5B",
"n  c #5C5B59",
"m  c gray36",
"M  c gray37",
"N  c #5F5F5F",
"B  c #606060",
"V  c gray38",
"C  c gray39",
"Z  c #646464",
"A  c gray40",
"S  c #686868",
"D  c DimGray",
"F  c #6A6A6A",
"G  c gray42",
"H  c #6C6C6C",
"J  c #6D6D6D",
"K  c gray43",
"L  c #6F6F6F",
"P  c gray44",
"I  c #717171",
"U  c #727170",
"Y  c gray45",
"T  c #747474",
"R  c gray46",
"E  c #777574",
"W  c #767676",
"Q  c #777777",
"!  c #797675",
"~  c #7A7874",
"^  c gray47",
"/  c gray48",
"(  c #7B7B7B",
")  c #7C7C7C",
"_  c gray49",
"`  c #7E7E7E",
"'  c gray50",
"]  c #87847E",
"[  c #808080",
"{  c gray51",
"}  c #848484",
"|  c gray52",
" . c #868686",
".. c gray53",
"X. c #888888",
"o. c #898989",
"O. c gray54",
"+. c #8B8B8B",
"@. c gray55",
"#. c #8D8D8D",
"$. c #8E8E8E",
"%. c gray56",
"&. c #909090",
"*. c #919090",
"=. c gray57",
"-. c #929292",
";. c #939393",
":. c gray58",
">. c #959595",
",. c gray59",
"<. c #979797",
"1. c #999290",
"2. c #989898",
"3. c gray60",
"4. c #9B9B9B",
"5. c #9E9D9D",
"6. c gray62",
"7. c #A49D9A",
"8. c gray63",
"9. c #A2A2A2",
"0. c gray64",
"q. c #A4A4A4",
"w. c gray65",
"e. c #ABA3A1",
"r. c gray66",
"t. c #A9A9A9",
"y. c #AAAAAA",
"u. c gray68",
"i. c #AEAEAC",
"p. c #B5ADAA",
"a. c #B2B2B2",
"s. c gray70",
"d. c #B4B4B4",
"f. c #B7B7B7",
"g. c #B8B8B6",
"h. c gray72",
"j. c gray73",
"k. c #BBBBBB",
"l. c gray74",
"z. c #C0C0C0",
"x. c gray76",
"c. c #C6C5C3",
"v. c gray77",
"b. c gray79",
"n. c gray80",
"m. c #CFCECC",
"M. c gray81",
"N. c None",
/* pixels */
"N.N.N.N.N.N.N.N.N.N.N.N.N.N.N.N.N.N.N.N.N.N.N.N.N.N.N.N.N.N.N.N.N.N.N.N.N.N.N.N.N.N.N.N.N.N.N.N.N.N.N.N.N.N.N.N.N.N.N.N.N.N.N.N.",
"N.N.N.N.N.N.N.N.N.N.N.N.N.N.N.N.N.N.N.N.N.N.N.N.N.N.N.N.N.N.N.N.N.N.N.N.N.N.N.N.N.N.N.N.N.N.N.N.N.N.N.N.N.N.N.N.N.N.N.N.N.N.N.N.",
"N.N.N.N.N.N.N.N.N.N.N.N.N.N.N.N.N.N.N.N.N.N.N.N.N.N.N.N.N.N.N.N.N.N.N.N.N.N.N.N.N.N.N.N.N.N.N.N.N.N.N.N.N.N.N.N.N.N.N.N.N.N.N.N.",
"N.N.N.N.N.N.N.N.N.N.N.N.N.N.N.N.N.N.N.N.N.N.N.N.N.N.N.N.N.N.N.N.N.N.N.N.N.N.N.N.N.N.N.N.N.N.N.N.N.N.N.N.N.N.N.N.N.N.N.N.N.N.N.N.",
"N.N.N.N.N.N.N.N.N.N.N.N.N.N.N.N.N.N.N.N.N.N.N.N.N.N.N.N.N.N.N.N.N.N.N.N.N.N.N.N.N.N.N.N.N.N.N.N.N.N.N.N.N.N.N.N.N.N.N.N.N.N.N.N.",
"N.N.N.N.N.N.N.N.N.N.N.N.N.N.N.N.N.N.N.N.N.N.N.N.N.N.N.N.N.N.N.N.N.N.N.N.N.N.N.N.N.N.N.N.N.N.N.N.N.N.N.N.N.N.N.N.N.N.N.N.N.N.N.N.",
"N.N.N.N.N.N.N.N.N.N.N.N.N.N.N.N.N.N.N.N.N.N.N.N.N.N.N.N.N.N.N.N.N.N.N.N.N.N.N.N.N.N.N.N.N.N.N.N.N.N.N.N.N.N.N.N.N.N.N.N.N.N.N.N.",
"N.N.N.N.N.N.N.N.N.N.N.N.N.N.N.N.N.N.N.N.N.N.N.N.N.N.N.N.N.N.N.N.N.N.N.N.N.N.N.N.N.N.N.N.N.N.N.N.N.N.N.N.N.N.N.N.N.N.N.N.N.N.N.N.",
"N.N.N.N.N.N.N.N.N.N.N.N.N.N.N.N.N.N.N.N.N.N.N.N.N.N.N.N.N.N.N.N.N.N.N.N.N.N.N.N.N.N.N.N.N.N.N.N.N.N.N.N.N.N.N.N.N.N.N.N.N.N.N.N.",
"N.N.N.N.N.N.N.N.N.N.N.N.N.N.N.N.N.N.N.N.N.N.N.N.N.N.N.N.N.N.N.N.N.N.N.N.N.N.N.N.N.N.N.N.N.N.N.N.N.N.N.N.N.N.N.N.N.N.N.N.N.N.N.N.",
"N.N.N.N.N.N.N.N.                              N.N.N.N.N.N.N.N.N.N.N.N.N.N.N.N.N.N.N.N.N.N.N.N.N.N.N.N.N.N.N.N.N.N.N.N.N.N.N.N.N.",
"N.N.N.N.N.N.N.N.                              N.N.N.N.N.N.N.N.N.N.N.N.N.N.N.N.N.N.N.N.N.N.N.N.N.N.N.N.N.N.N.N.N.N.N.N.N.N.N.N.N.",
"N.N.N.N.N.N.N.N.                              N.N.N.N.N.N.N.N.N.N.N.N.N.N.N.N.N.N.N.N.N.N.N.N.N.N.N.N.N.N.N.N.N.N.N.N.N.N.N.N.N.",
"N.N.N.N.N.N.N.N.    ) M.M.,.,.>.:.:.h.h.v.n.n.                                                  N.N.N.N.N.N.N.N.N.N.N.N.N.N.N.N.",
"N.N.N.N.N.N.N.N.    ) M.M.,.,.>.:.:.h.h.v.n.n.                                                  N.N.N.N.N.N.N.N.N.N.N.N.N.N.N.N.",
"N.N.N.N.N.N.    I I 0.v.v.q.q.t.u.u.9.9.d.z.z.c c v v v Z Z Z Z Z Z Z Z Z Z / / <     / / / / /     N.N.N.N.N.N.N.N.N.N.N.N.N.N.",
"N.N.N.N.N.      l.l.l.l.l.u.u.f.l.l.:.:.y.h.h.:.:.>.,.,.w.w.w.w.w.w.w.w.w.w.n.n.j     n.n.n.n.n.    N.N.N.N.N.N.N.N.N.N.N.N.N.N.",
"N.N.N.N.N.      l.l.l.l.l.u.u.f.l.l.:.:.y.h.h.:.:.>.,.,.w.w.w.w.w.w.w.w.w.w.n.n.j     n.n.n.n.n.    N.N.N.N.N.N.N.N.N.N.N.N.N.N.",
"N.N.N.N.N.      l.l.s.u.u.:.:.R V V :.:.:.:.:.,.,.,.,.,.K K R / / / / =.8.8.n.n.n.n.n.    P j.j.n.n.j         N.N.N.N.N.N.N.N.N.",
"N.N.N.N.N.      l.l.s.u.u.:.:.R V V :.:.:.:.:.,.,.,.,.,.K K R / / / / =.8.8.n.n.n.n.n.    P j.j.n.n.j         N.N.N.N.N.N.N.N.N.",
"N.N.N.N.N.       . .0.f.f.R R D V V R R Y I I ,.,.[ I I V V F P P P P ' O.O.a.a.x.n.n.    P j.j.<.<. ./ / / / e     N.N.N.N.N.N.",
"N.N.N.N.N.      V V 2.l.l.V V V V V V V m c c ,.,.I c c c c C D D D D Y / / 8.8.k.n.n.    P j.j.Y Y r.n.n.n.n.j     N.N.N.N.N.N.",
"N.N.N.N.N.      V V 2.l.l.V V V V V V V m c c ,.,.I c c c c C D D D D Y / / 8.8.k.n.n.    P j.j.Y Y r.n.n.n.n.j     N.N.N.N.N.N.",
"N.N.N.    x 1.1.V V %.u.u.V V 7 o o o o i V V c c D Y Y Y Y Y Y Y D D D D D / / =.8.8.w.w.t     Y Y Y Y Y Y Y r.n.n.    N.N.N.N.",
"N.N.N.    x 1.1.V V %.u.u.V V 7 o o o o i V V c c D Y Y Y Y Y Y Y D D D D D / / =.8.8.w.w.t     Y Y Y Y Y Y Y r.n.n.    N.N.N.N.",
"N.N.N.    x 1.1.V V Y ' ' _ _ b i i i i z V V M M c z z z z z z z L L G D D P P ' O.O.@.@.T Z Z ; ; h A A Y Y r.n.n.    N.N.N.N.",
"N.N.N.    x 1.1.V V V V V %.%.Y V V V V V V V V V f t t t t t t t Y Y J D D D D Y / / / / :.w.w.    7 M M Y Y r.n.n.    N.N.N.N.",
"N.N.N.    x 1.1.V V V V V %.%.Y V V V V V V V V V f t t t t t t t Y Y J D D D D Y / / / / :.w.w.    7 M M Y Y r.n.n.    N.N.N.N.",
"      p.p.p.p.p.1.1.E V V _ _ _ _ _ _ _ L A A t t 5 - - o o o o o d d N G G / / :.w.w.D D $.w.w.    7 M M M M M M M n.n.j     N.",
"      p.p.p.p.p.1.1.E V V _ _ _ _ _ _ _ L A A t t 5 - - o o o o o d d N G G / / :.w.w.D D $.w.w.    7 M M M M M M M n.n.j     N.",
"      p.p.e.7.7.! ! U J J i.i.*._ _ _ _ L A A t t > + + % % 1 8 8 d d N G G :.:.#.....Q Q | %.%.d d 4 $ $ $ $ p M M <.<.0     N.",
"      p.p.7.1.1.C C K R R m.m.5._ _ _ _ L A A t t = o o - - r d d d d N G G w.w...Y Y [ [ [ [ [ [ [ 2         7 M M Y Y ;     N.",
"      p.p.7.1.1.C C K R R m.m.5._ _ _ _ L A A t t = o o - - r d d d d N G G w.w...Y Y [ [ [ [ [ [ [ 2         7 M M Y Y ;     N.",
"N.N.N.    9 C C o o p C C ,.,.g.m.m.A A A A A t t t t t t t t t t G G $.w.w.Y Y C c c 2 2 c Y Y [ [ [ [ [ %.%.8     e e X     N.",
"N.N.N.    9 C C o o p C C ,.,.g.m.m.A A A A A t t t t t t t t t t G G $.w.w.Y Y C c c 2 2 c Y Y [ [ [ [ [ %.%.8     e e X     N.",
"N.N.N.N.N.O & & p p M K K g.g.c.m.m.~ ~ n p p 8 8 8 8 8 8 8 V ( ( +.+.o.....d d w 3 3 # # q d d ^ ^ T P P %.%.J z z X X .     N.",
"N.N.N.N.N.      C C K R R m.m.m.m.m.] ] k 2 2 2 2 2 2 2 2 2 R 8.8.8.8.| Y Y 2 2 # o o o o * 2 2 Y Y G A A %.%.%.%.%.          N.",
"N.N.N.N.N.      C C K R R m.m.m.m.m.] ] k 2 2 2 2 2 2 2 2 2 R 8.8.8.8.| Y Y 2 2 # o o o o * 2 2 Y Y G A A %.%.%.%.%.          N.",
"N.N.N.N.N.      R R o.,.,.,.,.,.,.,.2 2 2 2 2 o o o o o 2 2 m ^ ^ ^ ^ R Y Y Y Y d 2 2 o o o o o 2 2 c Y Y %.%.%.%.%.%.%.8     N.",
"N.N.N.N.N.      R R o.,.,.,.,.,.,.,.2 2 2 2 2 o o o o o 2 2 m ^ ^ ^ ^ R Y Y Y Y d 2 2 o o o o o 2 2 c Y Y %.%.%.%.%.%.%.8     N.",
"N.N.N.N.N.N.N.N.: : J ,.,.,.,.6.q.q.2 2 2 2 2 o o o o o 2 2 u g g ^ ^ W T T A A a 2 2 * * * * * 2 2 c Y Y ` ` l 8 8 8 8 @ N.N.N.",
"N.N.N.N.N.N.N.N.    v ,.,.,.,.q.u.u.2 2 2 2 2 o o o o o 2 2 2 2 2 ^ ^ W R R M M u 2 2 2 2 2 2 2 2 2 c Y Y Y Y ;         N.N.N.N.",
"N.N.N.N.N.N.N.N.    v ,.,.,.,.q.u.u.2 2 2 2 2 o o o o o 2 2 2 2 2 ^ ^ W R R M M u 2 2 2 2 2 2 2 2 2 c Y Y Y Y ;         N.N.N.N.",
"N.N.N.N.N.N.N.N.N.N.      3.3.X._ _ u.u.Z 2 2 2 2 2 2 2 2 2 d M M ^ ^ S M M D D L Y Y ,.,.d o o ,.,.0         N.N.N.N.N.N.N.N.N.",
"N.N.N.N.N.N.N.N.N.N.      3.3.X._ _ u.u.Z 2 2 2 2 2 2 2 2 2 d M M ^ ^ S M M D D L Y Y ,.,.d o o ,.,.0         N.N.N.N.N.N.N.N.N.",
"N.N.N.N.N.N.N.N.N.N.N.N.N.q q K $.$.&.&.S d d 2 2 2 2 2 d d B K K S S s 6 6 [ [ { } } -.-.R V V 0 0 $ N.N.N.N.N.N.N.N.N.N.N.N.N.",
"N.N.N.N.N.N.N.N.N.N.N.N.N.    m 3.3._ _ F M M 2 2 2 2 2 M M K ^ ^ M M 6 o o %.%.%.%.%.%.%.%.%.%.    N.N.N.N.N.N.N.N.N.N.N.N.N.N.",
"N.N.N.N.N.N.N.N.N.N.N.N.N.    m 3.3._ _ F M M 2 2 2 2 2 M M K ^ ^ M M 6 o o %.%.%.%.%.%.%.%.%.%.    N.N.N.N.N.N.N.N.N.N.N.N.N.N.",
"N.N.N.N.N.N.N.N.N.N.N.N.N.    m 3.3.o o } b.b._ _ y o o _ _ _ _ _ M M #.u.u.o o V %.%.%.%.8     N.N.N.N.N.N.N.N.N.N.N.N.N.N.N.N.",
"N.N.N.N.N.N.N.N.N.N.N.N.N.    m 3.3.o o } b.b._ _ y o o _ _ _ _ _ M M #.u.u.o o V %.%.%.%.8     N.N.N.N.N.N.N.N.N.N.N.N.N.N.N.N.",
"N.N.N.N.N.N.N.N.N.N.N.N.N.N.N., q q a a / 4.4.X.X.F z z y y A _ _ #.#.=.;.;.H H d 8 8 8 8 @ N.N.N.N.N.N.N.N.N.N.N.N.N.N.N.N.N.N.",
"N.N.N.N.N.N.N.N.N.N.N.N.N.N.N.      A A T _ _ %.%.} _ _ o o z _ _ u.u.;.{ { 8.8.e         N.N.N.N.N.N.N.N.N.N.N.N.N.N.N.N.N.N.N.",
"N.N.N.N.N.N.N.N.N.N.N.N.N.N.N.      A A T _ _ %.%.} _ _ o o z _ _ u.u.;.{ { 8.8.e         N.N.N.N.N.N.N.N.N.N.N.N.N.N.N.N.N.N.N.",
"N.N.N.N.N.N.N.N.N.N.N.N.N.N.N.N.N.N.                    u.u.u.u.u.8.8.8.8.8.    N.N.N.N.N.N.N.N.N.N.N.N.N.N.N.N.N.N.N.N.N.N.N.N.",
"N.N.N.N.N.N.N.N.N.N.N.N.N.N.N.N.N.N.                    u.u.u.u.u.8.8.8.8.8.    N.N.N.N.N.N.N.N.N.N.N.N.N.N.N.N.N.N.N.N.N.N.N.N.",
"N.N.N.N.N.N.N.N.N.N.N.N.N.N.N.N.N.N.N.N.N.N.N.N.N.N.N.N.i i i i i e e e e e N.N.N.N.N.N.N.N.N.N.N.N.N.N.N.N.N.N.N.N.N.N.N.N.N.N.",
"N.N.N.N.N.N.N.N.N.N.N.N.N.N.N.N.N.N.N.N.N.N.N.N.N.N.N.N.                    N.N.N.N.N.N.N.N.N.N.N.N.N.N.N.N.N.N.N.N.N.N.N.N.N.N.",
"N.N.N.N.N.N.N.N.N.N.N.N.N.N.N.N.N.N.N.N.N.N.N.N.N.N.N.N.                    N.N.N.N.N.N.N.N.N.N.N.N.N.N.N.N.N.N.N.N.N.N.N.N.N.N.",
"N.N.N.N.N.N.N.N.N.N.N.N.N.N.N.N.N.N.N.N.N.N.N.N.N.N.N.N.N.N.N.N.N.N.N.N.N.N.N.N.N.N.N.N.N.N.N.N.N.N.N.N.N.N.N.N.N.N.N.N.N.N.N.N.",
"N.N.N.N.N.N.N.N.N.N.N.N.N.N.N.N.N.N.N.N.N.N.N.N.N.N.N.N.N.N.N.N.N.N.N.N.N.N.N.N.N.N.N.N.N.N.N.N.N.N.N.N.N.N.N.N.N.N.N.N.N.N.N.N.",
"N.N.N.N.N.N.N.N.N.N.N.N.N.N.N.N.N.N.N.N.N.N.N.N.N.N.N.N.N.N.N.N.N.N.N.N.N.N.N.N.N.N.N.N.N.N.N.N.N.N.N.N.N.N.N.N.N.N.N.N.N.N.N.N.",
"N.N.N.N.N.N.N.N.N.N.N.N.N.N.N.N.N.N.N.N.N.N.N.N.N.N.N.N.N.N.N.N.N.N.N.N.N.N.N.N.N.N.N.N.N.N.N.N.N.N.N.N.N.N.N.N.N.N.N.N.N.N.N.N.",
"N.N.N.N.N.N.N.N.N.N.N.N.N.N.N.N.N.N.N.N.N.N.N.N.N.N.N.N.N.N.N.N.N.N.N.N.N.N.N.N.N.N.N.N.N.N.N.N.N.N.N.N.N.N.N.N.N.N.N.N.N.N.N.N.",
"N.N.N.N.N.N.N.N.N.N.N.N.N.N.N.N.N.N.N.N.N.N.N.N.N.N.N.N.N.N.N.N.N.N.N.N.N.N.N.N.N.N.N.N.N.N.N.N.N.N.N.N.N.N.N.N.N.N.N.N.N.N.N.N."
};
